<?xml version="1.0" standalone="no"?>
<!DOCTYPE svg PUBLIC "-//W3C//DTD SVG 20010904//EN"
 "http://www.w3.org/TR/2001/REC-SVG-20010904/DTD/svg10.dtd">
<svg version="1.0" xmlns="http://www.w3.org/2000/svg"
 width="225.000000pt" height="225.000000pt" viewBox="0 0 225.000000 225.000000"
 preserveAspectRatio="xMidYMid meet">
<metadata>
Created by potrace 1.11, written by Peter Selinger 2001-2013
</metadata>
<g transform="translate(0.000000,225.000000) scale(0.100000,-0.100000)"
fill="#000000" stroke="none">
<path d="M672 2078 c-35 -18 -61 -79 -73 -171 -17 -136 -29 -186 -55 -216 -29
-35 -90 -64 -163 -80 -68 -14 -98 -36 -166 -120 -99 -123 -151 -275 -125 -371
24 -91 122 -150 247 -150 l53 0 0 -43 c0 -67 42 -137 151 -252 127 -134 128
-141 29 -235 -38 -37 -70 -74 -70 -83 0 -27 41 -47 95 -47 61 0 145 38 165 75
l13 24 25 -19 c29 -24 79 -26 108 -5 12 8 35 44 52 80 20 40 38 65 48 65 9 0
53 -11 98 -24 44 -14 103 -28 130 -31 l48 -7 -49 -23 c-92 -42 -116 -93 -68
-140 29 -30 82 -33 214 -11 47 8 118 20 158 25 109 16 158 42 238 125 73 76
81 80 208 101 118 19 220 245 110 245 -12 0 -44 -9 -71 -19 l-48 -19 -12 116
c-19 208 -67 307 -194 405 -147 112 -504 240 -618 221 -19 -3 -70 -17 -113
-30 -96 -30 -175 -32 -208 -5 -46 37 -18 128 82 262 85 114 103 196 54 244
-36 37 -70 32 -117 -14 -29 -29 -37 -34 -31 -18 15 42 6 98 -20 124 -28 28
-90 39 -125 21z m76 -283 c-6 -14 -13 -23 -15 -21 -5 5 15 46 22 46 3 0 -1
-11 -7 -25z"/>
</g>
</svg>
